<?xml version="1.0" encoding="iso-8859-1"?>
<!-- Generator: Adobe Illustrator 19.1.0, SVG Export Plug-In . SVG Version: 6.00 Build 0)  -->
<svg version="1.1" id="Capa_1"
  xmlns="http://www.w3.org/2000/svg"
  xmlns:xlink="http://www.w3.org/1999/xlink" x="0px" y="0px" viewBox="0 0 559.011 559.011" style="enable-background:new 0 0 559.011 559.011;" xml:space="preserve">
  <g>
    <path d="M216.607,79.621l-18.122-67.668l17.392-4.658l18.122,67.668L216.607,79.621z M342.426,479.39l18.122,67.668l-17.392,4.658
		l-18.122-67.668L342.426,479.39z M447.94,404.39l54.362,44.017l-11.33,13.993l-54.362-44.017L447.94,404.39z M111.035,154.708
		l-54.362-44.017l11.331-13.993l54.362,44.017L111.035,154.708z M70.016,277.567L0,273.893l0.942-17.959l70.016,3.674
		L70.016,277.567z M559.011,285.186l-0.942,17.959l-70.016-3.674l0.942-17.959L559.011,285.186z M98.924,386.052l9.815,15.092
		l-58.646,38.141l-9.815-15.092L98.924,386.052z M460.099,173.033l-9.815-15.092L508.93,119.8l9.815,15.092L460.099,173.033z
		 M362.892,87.254l-16.803-6.467l25.149-65.344l16.803,6.467L362.892,87.254z M196.074,471.776l16.803,6.467l-25.149,65.344
		l-16.803-6.467L196.074,471.776z"/>
    <path d="M279.495,81.508c-109.185,0-198.029,88.843-198.029,198.029s88.843,198.029,198.029,198.029
		c109.204,0,198.029-88.843,198.029-198.029S388.68,81.508,279.495,81.508z M279.495,459.563
		c-99.266,0-180.026-80.76-180.026-180.026s80.76-180.026,180.026-180.026c99.285,0,180.026,80.76,180.026,180.026
		S378.761,459.563,279.495,459.563z"/>
    <g>
    </g>
    <g>
    </g>
    <g>
    </g>
    <g>
    </g>
    <g>
    </g>
    <g>
    </g>
    <g>
    </g>
    <g>
    </g>
    <g>
    </g>
    <g>
    </g>
    <g>
    </g>
    <g>
    </g>
    <g>
    </g>
    <g>
    </g>
    <g>
    </g>
  </g>
  <g>
  </g>
  <g>
  </g>
  <g>
  </g>
  <g>
  </g>
  <g>
  </g>
  <g>
  </g>
  <g>
  </g>
  <g>
  </g>
  <g>
  </g>
  <g>
  </g>
  <g>
  </g>
  <g>
  </g>
  <g>
  </g>
  <g>
  </g>
  <g>
  </g>
</svg>
